<mxfile host="app.diagrams.net" modified="2023-05-19T12:41:54.504Z" agent="Mozilla/5.0 (Windows NT 10.0; Win64; x64) AppleWebKit/537.36 (KHTML, like Gecko) Chrome/113.0.0.0 Safari/537.36" etag="sBclFsgOjA3y0FayMTQz" version="21.3.2" type="github">
  <diagram id="prtHgNgQTEPvFCAcTncT" name="Page-1">
    <mxGraphModel dx="1118" dy="529" grid="1" gridSize="10" guides="1" tooltips="1" connect="1" arrows="1" fold="1" page="1" pageScale="1" pageWidth="827" pageHeight="1169" math="0" shadow="0">
      <root>
        <mxCell id="0" />
        <mxCell id="1" parent="0" />
        <mxCell id="-Cq0B-JXBsXN34kBOO9R-42" value="" style="edgeStyle=orthogonalEdgeStyle;rounded=0;orthogonalLoop=1;jettySize=auto;html=1;entryX=1;entryY=0.5;entryDx=0;entryDy=0;" edge="1" parent="1" source="-Cq0B-JXBsXN34kBOO9R-39" target="-Cq0B-JXBsXN34kBOO9R-32">
          <mxGeometry relative="1" as="geometry" />
        </mxCell>
        <mxCell id="-Cq0B-JXBsXN34kBOO9R-39" value="" style="rounded=1;whiteSpace=wrap;html=1;absoluteArcSize=1;arcSize=14;strokeWidth=2;fillColor=#dae8fc;strokeColor=#6c8ebf;dashed=1;" vertex="1" parent="1">
          <mxGeometry x="625" y="363" width="120" height="160" as="geometry" />
        </mxCell>
        <mxCell id="-Cq0B-JXBsXN34kBOO9R-97" style="edgeStyle=orthogonalEdgeStyle;rounded=0;orthogonalLoop=1;jettySize=auto;html=1;entryX=0.5;entryY=0;entryDx=0;entryDy=0;" edge="1" parent="1" source="-Cq0B-JXBsXN34kBOO9R-28" target="-Cq0B-JXBsXN34kBOO9R-70">
          <mxGeometry relative="1" as="geometry" />
        </mxCell>
        <mxCell id="-Cq0B-JXBsXN34kBOO9R-28" value="" style="rounded=1;whiteSpace=wrap;html=1;absoluteArcSize=1;arcSize=14;strokeWidth=2;fillColor=#dae8fc;strokeColor=#6c8ebf;dashed=1;" vertex="1" parent="1">
          <mxGeometry x="625" y="128" width="120" height="175" as="geometry" />
        </mxCell>
        <mxCell id="-Cq0B-JXBsXN34kBOO9R-1" value="" style="line;strokeWidth=2;direction=south;html=1;dashed=1;" vertex="1" parent="1">
          <mxGeometry x="210" y="124" width="10" height="400" as="geometry" />
        </mxCell>
        <mxCell id="-Cq0B-JXBsXN34kBOO9R-2" value="" style="shape=ext;double=1;rounded=1;whiteSpace=wrap;html=1;fillColor=#ffe6cc;strokeColor=#d79b00;dashed=1;" vertex="1" parent="1">
          <mxGeometry x="10" y="295" width="170" height="115" as="geometry" />
        </mxCell>
        <mxCell id="-Cq0B-JXBsXN34kBOO9R-44" style="edgeStyle=orthogonalEdgeStyle;rounded=0;orthogonalLoop=1;jettySize=auto;html=1;entryX=0;entryY=0.5;entryDx=0;entryDy=0;" edge="1" parent="1" source="-Cq0B-JXBsXN34kBOO9R-46" target="-Cq0B-JXBsXN34kBOO9R-5">
          <mxGeometry relative="1" as="geometry" />
        </mxCell>
        <mxCell id="-Cq0B-JXBsXN34kBOO9R-4" value="" style="shape=ext;double=1;rounded=1;whiteSpace=wrap;html=1;fillColor=#ffe6cc;strokeColor=#d79b00;dashed=1;" vertex="1" parent="1">
          <mxGeometry x="20" y="152" width="150" height="100" as="geometry" />
        </mxCell>
        <mxCell id="-Cq0B-JXBsXN34kBOO9R-38" style="edgeStyle=orthogonalEdgeStyle;rounded=0;orthogonalLoop=1;jettySize=auto;html=1;entryX=0;entryY=0.5;entryDx=0;entryDy=0;" edge="1" parent="1" source="-Cq0B-JXBsXN34kBOO9R-5" target="-Cq0B-JXBsXN34kBOO9R-28">
          <mxGeometry relative="1" as="geometry">
            <mxPoint x="680" y="224" as="targetPoint" />
          </mxGeometry>
        </mxCell>
        <mxCell id="-Cq0B-JXBsXN34kBOO9R-5" value="HC Receving Job Process" style="swimlane;" vertex="1" parent="1">
          <mxGeometry x="350" y="159" width="180" height="110" as="geometry" />
        </mxCell>
        <mxCell id="-Cq0B-JXBsXN34kBOO9R-27" value="" style="verticalLabelPosition=bottom;sketch=0;aspect=fixed;html=1;verticalAlign=top;strokeColor=none;align=center;outlineConnect=0;shape=mxgraph.citrix.process;" vertex="1" parent="-Cq0B-JXBsXN34kBOO9R-5">
          <mxGeometry x="60" y="30" width="52" height="62" as="geometry" />
        </mxCell>
        <mxCell id="-Cq0B-JXBsXN34kBOO9R-12" value="Hawkeye" style="strokeWidth=2;html=1;shape=mxgraph.flowchart.database;whiteSpace=wrap;fillColor=#ffe6cc;strokeColor=#d79b00;" vertex="1" parent="1">
          <mxGeometry x="655" y="138" width="60" height="40" as="geometry" />
        </mxCell>
        <mxCell id="-Cq0B-JXBsXN34kBOO9R-15" value="" style="line;strokeWidth=2;direction=south;html=1;dashed=1;" vertex="1" parent="1">
          <mxGeometry x="550" y="109" width="30" height="423" as="geometry" />
        </mxCell>
        <mxCell id="-Cq0B-JXBsXN34kBOO9R-17" value="Signify" style="text;strokeColor=none;align=center;fillColor=none;html=1;verticalAlign=middle;whiteSpace=wrap;rounded=0;fontStyle=1;fontSize=20;" vertex="1" parent="1">
          <mxGeometry x="65" y="65" width="60" height="30" as="geometry" />
        </mxCell>
        <mxCell id="-Cq0B-JXBsXN34kBOO9R-20" value="Membership Data&amp;nbsp;&lt;br&gt;6 Files" style="strokeWidth=2;html=1;shape=mxgraph.flowchart.multi-document;whiteSpace=wrap;" vertex="1" parent="1">
          <mxGeometry x="42.5" y="318" width="117.5" height="72" as="geometry" />
        </mxCell>
        <mxCell id="-Cq0B-JXBsXN34kBOO9R-21" value="Sends&lt;br/&gt;back&amp;nbsp;- &lt;br&gt;50 Files" style="strokeWidth=2;html=1;shape=mxgraph.flowchart.multi-document;whiteSpace=wrap;" vertex="1" parent="1">
          <mxGeometry x="37.5" y="167" width="115" height="70" as="geometry" />
        </mxCell>
        <mxCell id="-Cq0B-JXBsXN34kBOO9R-29" value="HouseCalls&amp;nbsp;" style="text;strokeColor=none;align=center;fillColor=none;html=1;verticalAlign=middle;whiteSpace=wrap;rounded=0;fontStyle=1;fontSize=20;" vertex="1" parent="1">
          <mxGeometry x="384" y="65" width="60" height="30" as="geometry" />
        </mxCell>
        <mxCell id="-Cq0B-JXBsXN34kBOO9R-30" value="DB Servers" style="text;strokeColor=none;align=center;fillColor=none;html=1;verticalAlign=middle;whiteSpace=wrap;rounded=0;fontStyle=1;fontSize=20;" vertex="1" parent="1">
          <mxGeometry x="600" y="64" width="170" height="30" as="geometry" />
        </mxCell>
        <mxCell id="-Cq0B-JXBsXN34kBOO9R-43" style="edgeStyle=orthogonalEdgeStyle;rounded=0;orthogonalLoop=1;jettySize=auto;html=1;entryX=1.02;entryY=0.6;entryDx=0;entryDy=0;entryPerimeter=0;exitX=0;exitY=0.5;exitDx=0;exitDy=0;exitPerimeter=0;" edge="1" parent="1" source="-Cq0B-JXBsXN34kBOO9R-54">
          <mxGeometry relative="1" as="geometry">
            <mxPoint x="230" y="389" as="sourcePoint" />
            <mxPoint x="183.4000000000001" y="378" as="targetPoint" />
          </mxGeometry>
        </mxCell>
        <mxCell id="-Cq0B-JXBsXN34kBOO9R-55" style="edgeStyle=orthogonalEdgeStyle;rounded=0;orthogonalLoop=1;jettySize=auto;html=1;entryX=1;entryY=0.25;entryDx=0;entryDy=0;entryPerimeter=0;" edge="1" parent="1" source="-Cq0B-JXBsXN34kBOO9R-32" target="-Cq0B-JXBsXN34kBOO9R-54">
          <mxGeometry relative="1" as="geometry" />
        </mxCell>
        <mxCell id="-Cq0B-JXBsXN34kBOO9R-32" value="HC Sending Job Process" style="swimlane;" vertex="1" parent="1">
          <mxGeometry x="355" y="339" width="170" height="120" as="geometry" />
        </mxCell>
        <mxCell id="-Cq0B-JXBsXN34kBOO9R-33" value="" style="verticalLabelPosition=bottom;sketch=0;aspect=fixed;html=1;verticalAlign=top;strokeColor=none;align=center;outlineConnect=0;shape=mxgraph.citrix.process;" vertex="1" parent="-Cq0B-JXBsXN34kBOO9R-32">
          <mxGeometry x="55" y="33" width="52" height="62" as="geometry" />
        </mxCell>
        <mxCell id="-Cq0B-JXBsXN34kBOO9R-34" value="XLCare" style="strokeWidth=2;html=1;shape=mxgraph.flowchart.database;whiteSpace=wrap;fillColor=#ffe6cc;strokeColor=#d79b00;" vertex="1" parent="1">
          <mxGeometry x="655" y="191" width="60" height="40" as="geometry" />
        </mxCell>
        <mxCell id="-Cq0B-JXBsXN34kBOO9R-35" value="CS_IM" style="strokeWidth=2;html=1;shape=mxgraph.flowchart.database;whiteSpace=wrap;fillColor=#ffe6cc;strokeColor=#d79b00;" vertex="1" parent="1">
          <mxGeometry x="655" y="243" width="60" height="40" as="geometry" />
        </mxCell>
        <mxCell id="-Cq0B-JXBsXN34kBOO9R-40" value="CS_IM" style="strokeWidth=2;html=1;shape=mxgraph.flowchart.database;whiteSpace=wrap;fillColor=#ffe6cc;strokeColor=#d79b00;" vertex="1" parent="1">
          <mxGeometry x="655" y="393" width="60" height="40" as="geometry" />
        </mxCell>
        <mxCell id="-Cq0B-JXBsXN34kBOO9R-45" value="" style="edgeStyle=orthogonalEdgeStyle;rounded=0;orthogonalLoop=1;jettySize=auto;html=1;entryX=0;entryY=0.5;entryDx=0;entryDy=0;" edge="1" parent="1" target="-Cq0B-JXBsXN34kBOO9R-46">
          <mxGeometry relative="1" as="geometry">
            <mxPoint x="170" y="214" as="sourcePoint" />
            <mxPoint x="300" y="219" as="targetPoint" />
          </mxGeometry>
        </mxCell>
        <mxCell id="-Cq0B-JXBsXN34kBOO9R-46" value="&lt;b&gt;Nas Drive&lt;/b&gt;" style="verticalLabelPosition=bottom;verticalAlign=top;html=1;shape=process;whiteSpace=wrap;rounded=1;size=0.14;arcSize=6;" vertex="1" parent="1">
          <mxGeometry x="240" y="194" width="70" height="40" as="geometry" />
        </mxCell>
        <mxCell id="-Cq0B-JXBsXN34kBOO9R-52" value="" style="sketch=0;pointerEvents=1;shadow=0;dashed=0;html=1;strokeColor=none;fillColor=#505050;labelPosition=center;verticalLabelPosition=bottom;verticalAlign=top;outlineConnect=0;align=center;shape=mxgraph.office.servers.active_directory_federation_services_proxy;" vertex="1" parent="1">
          <mxGeometry x="260" y="199.63" width="30" height="28.75" as="geometry" />
        </mxCell>
        <mxCell id="-Cq0B-JXBsXN34kBOO9R-54" value="&lt;b&gt;ECG&lt;/b&gt;" style="strokeWidth=2;html=1;shape=mxgraph.flowchart.document2;whiteSpace=wrap;size=0.25;fillColor=#d5e8d4;strokeColor=#82b366;" vertex="1" parent="1">
          <mxGeometry x="240" y="369" width="60" height="40" as="geometry" />
        </mxCell>
        <mxCell id="-Cq0B-JXBsXN34kBOO9R-58" value="" style="edgeStyle=entityRelationEdgeStyle;startArrow=none;endArrow=none;segment=10;curved=1;sourcePerimeterSpacing=0;targetPerimeterSpacing=0;rounded=0;entryX=0;entryY=0.25;entryDx=0;entryDy=0;exitX=0.25;exitY=0;exitDx=0;exitDy=0;" edge="1" target="-Cq0B-JXBsXN34kBOO9R-59" parent="1" source="-Cq0B-JXBsXN34kBOO9R-5">
          <mxGeometry relative="1" as="geometry">
            <mxPoint x="420" y="154" as="sourcePoint" />
            <mxPoint x="455" y="127" as="targetPoint" />
          </mxGeometry>
        </mxCell>
        <mxCell id="-Cq0B-JXBsXN34kBOO9R-59" value="ETL, SSIS jobs" style="rounded=1;whiteSpace=wrap;html=1;" vertex="1" parent="1">
          <mxGeometry x="450" y="109" width="90" height="30" as="geometry" />
        </mxCell>
        <mxCell id="-Cq0B-JXBsXN34kBOO9R-60" value="ETL, Talend Jobs" style="rounded=1;whiteSpace=wrap;html=1;" vertex="1" parent="1">
          <mxGeometry x="430" y="284" width="110" height="30" as="geometry" />
        </mxCell>
        <mxCell id="-Cq0B-JXBsXN34kBOO9R-61" value="" style="edgeStyle=entityRelationEdgeStyle;startArrow=none;endArrow=none;segment=10;curved=1;sourcePerimeterSpacing=0;targetPerimeterSpacing=0;rounded=0;entryX=0;entryY=0.25;entryDx=0;entryDy=0;exitX=0.25;exitY=0;exitDx=0;exitDy=0;" edge="1" parent="1" source="-Cq0B-JXBsXN34kBOO9R-32" target="-Cq0B-JXBsXN34kBOO9R-60">
          <mxGeometry relative="1" as="geometry">
            <mxPoint x="379" y="339" as="sourcePoint" />
            <mxPoint x="414" y="312" as="targetPoint" />
          </mxGeometry>
        </mxCell>
        <mxCell id="-Cq0B-JXBsXN34kBOO9R-63" value="" style="line;strokeWidth=2;direction=south;html=1;dashed=1;" vertex="1" parent="1">
          <mxGeometry x="780" y="111.5" width="30" height="423" as="geometry" />
        </mxCell>
        <mxCell id="-Cq0B-JXBsXN34kBOO9R-64" value="Reporting" style="text;strokeColor=none;align=center;fillColor=none;html=1;verticalAlign=middle;whiteSpace=wrap;rounded=0;fontStyle=1;fontSize=20;" vertex="1" parent="1">
          <mxGeometry x="1230" y="74" width="180" height="30" as="geometry" />
        </mxCell>
        <mxCell id="-Cq0B-JXBsXN34kBOO9R-70" value="" style="rounded=1;whiteSpace=wrap;html=1;absoluteArcSize=1;arcSize=14;strokeWidth=2;fillColor=#dae8fc;strokeColor=#6c8ebf;dashed=1;" vertex="1" parent="1">
          <mxGeometry x="838" y="234" width="100" height="98" as="geometry" />
        </mxCell>
        <mxCell id="-Cq0B-JXBsXN34kBOO9R-84" style="edgeStyle=orthogonalEdgeStyle;rounded=0;orthogonalLoop=1;jettySize=auto;html=1;entryX=0.391;entryY=-0.027;entryDx=0;entryDy=0;entryPerimeter=0;" edge="1" parent="1" source="-Cq0B-JXBsXN34kBOO9R-73" target="-Cq0B-JXBsXN34kBOO9R-82">
          <mxGeometry relative="1" as="geometry" />
        </mxCell>
        <mxCell id="-Cq0B-JXBsXN34kBOO9R-110" style="edgeStyle=orthogonalEdgeStyle;rounded=0;orthogonalLoop=1;jettySize=auto;html=1;entryX=0;entryY=0.5;entryDx=0;entryDy=0;" edge="1" parent="1" source="-Cq0B-JXBsXN34kBOO9R-73" target="-Cq0B-JXBsXN34kBOO9R-104">
          <mxGeometry relative="1" as="geometry" />
        </mxCell>
        <mxCell id="-Cq0B-JXBsXN34kBOO9R-73" value="" style="rounded=1;whiteSpace=wrap;html=1;absoluteArcSize=1;arcSize=14;strokeWidth=2;fillColor=#E5FAE4;strokeColor=#82b366;" vertex="1" parent="1">
          <mxGeometry x="989" y="229" width="130" height="108" as="geometry" />
        </mxCell>
        <mxCell id="-Cq0B-JXBsXN34kBOO9R-83" value="" style="edgeStyle=orthogonalEdgeStyle;rounded=0;orthogonalLoop=1;jettySize=auto;html=1;" edge="1" parent="1" source="-Cq0B-JXBsXN34kBOO9R-76" target="-Cq0B-JXBsXN34kBOO9R-81">
          <mxGeometry relative="1" as="geometry" />
        </mxCell>
        <mxCell id="-Cq0B-JXBsXN34kBOO9R-76" value="Meta Data&lt;br&gt;Control&lt;br&gt;Event&amp;nbsp;&lt;br&gt;Schedule" style="whiteSpace=wrap;html=1;aspect=fixed;fillColor=#fff2cc;strokeColor=#d6b656;" vertex="1" parent="1">
          <mxGeometry x="1019" y="124" width="80" height="80" as="geometry" />
        </mxCell>
        <mxCell id="-Cq0B-JXBsXN34kBOO9R-79" value="" style="verticalLabelPosition=bottom;html=1;verticalAlign=top;align=center;strokeColor=none;fillColor=#00BEF2;shape=mxgraph.azure.automation;pointerEvents=1;" vertex="1" parent="1">
          <mxGeometry x="1029" y="269" width="50" height="45" as="geometry" />
        </mxCell>
        <mxCell id="-Cq0B-JXBsXN34kBOO9R-81" value="Comprehensive Monitoring" style="text;strokeColor=none;align=center;fillColor=none;html=1;verticalAlign=middle;whiteSpace=wrap;rounded=0;fontStyle=1" vertex="1" parent="1">
          <mxGeometry x="1029" y="233" width="60" height="30" as="geometry" />
        </mxCell>
        <mxCell id="-Cq0B-JXBsXN34kBOO9R-82" value="&lt;b&gt;Alert&lt;/b&gt;" style="image;sketch=0;aspect=fixed;html=1;points=[];align=center;fontSize=12;image=img/lib/mscae/Notification.svg;" vertex="1" parent="1">
          <mxGeometry x="1091" y="408" width="50" height="50" as="geometry" />
        </mxCell>
        <mxCell id="-Cq0B-JXBsXN34kBOO9R-85" value="" style="line;strokeWidth=2;direction=south;html=1;dashed=1;" vertex="1" parent="1">
          <mxGeometry x="1170" y="109" width="30" height="423" as="geometry" />
        </mxCell>
        <mxCell id="-Cq0B-JXBsXN34kBOO9R-86" value="" style="edgeStyle=entityRelationEdgeStyle;startArrow=none;endArrow=none;segment=10;curved=1;sourcePerimeterSpacing=0;targetPerimeterSpacing=0;rounded=0;entryX=0;entryY=0.25;entryDx=0;entryDy=0;" edge="1" parent="1" target="-Cq0B-JXBsXN34kBOO9R-87" source="-Cq0B-JXBsXN34kBOO9R-52">
          <mxGeometry relative="1" as="geometry">
            <mxPoint x="260" y="192" as="sourcePoint" />
            <mxPoint x="260" y="148" as="targetPoint" />
          </mxGeometry>
        </mxCell>
        <mxCell id="-Cq0B-JXBsXN34kBOO9R-87" value="Incoming" style="rounded=1;whiteSpace=wrap;html=1;" vertex="1" parent="1">
          <mxGeometry x="255" y="148" width="55" height="30" as="geometry" />
        </mxCell>
        <mxCell id="-Cq0B-JXBsXN34kBOO9R-88" value="" style="edgeStyle=entityRelationEdgeStyle;startArrow=none;endArrow=none;segment=10;curved=1;sourcePerimeterSpacing=0;targetPerimeterSpacing=0;rounded=0;exitX=0.141;exitY=-0.041;exitDx=0;exitDy=0;exitPerimeter=0;" edge="1" parent="1" target="-Cq0B-JXBsXN34kBOO9R-54" source="-Cq0B-JXBsXN34kBOO9R-89">
          <mxGeometry relative="1" as="geometry">
            <mxPoint x="277.5" y="369" as="sourcePoint" />
            <mxPoint x="247.5" y="303" as="targetPoint" />
          </mxGeometry>
        </mxCell>
        <mxCell id="-Cq0B-JXBsXN34kBOO9R-89" value="Sends" style="rounded=1;whiteSpace=wrap;html=1;" vertex="1" parent="1">
          <mxGeometry x="247.5" y="422" width="55" height="30" as="geometry" />
        </mxCell>
        <mxCell id="-Cq0B-JXBsXN34kBOO9R-92" value="&lt;b style=&quot;border-color: var(--border-color);&quot;&gt;Monitoring &amp;amp;&amp;nbsp;&lt;b style=&quot;background-color: initial;&quot;&gt;Controls&lt;/b&gt;&lt;b style=&quot;background-color: initial;&quot;&gt;&amp;nbsp;on files sent to and received from Signify&lt;/b&gt;&lt;b style=&quot;background-color: initial;&quot;&gt;&lt;br&gt;&lt;/b&gt;&lt;/b&gt;" style="text;strokeColor=none;align=center;fillColor=none;html=1;verticalAlign=middle;whiteSpace=wrap;rounded=0;fontStyle=1;fontSize=15;" vertex="1" parent="1">
          <mxGeometry x="140" width="940" height="30" as="geometry" />
        </mxCell>
        <mxCell id="-Cq0B-JXBsXN34kBOO9R-103" style="edgeStyle=orthogonalEdgeStyle;rounded=0;orthogonalLoop=1;jettySize=auto;html=1;entryX=0;entryY=0.5;entryDx=0;entryDy=0;" edge="1" parent="1" source="-Cq0B-JXBsXN34kBOO9R-96" target="-Cq0B-JXBsXN34kBOO9R-73">
          <mxGeometry relative="1" as="geometry" />
        </mxCell>
        <mxCell id="-Cq0B-JXBsXN34kBOO9R-96" value="CS_CM" style="strokeWidth=2;html=1;shape=mxgraph.flowchart.direct_data;whiteSpace=wrap;fillColor=#ffcc99;strokeColor=#FFE6CC;" vertex="1" parent="1">
          <mxGeometry x="847" y="265" width="82" height="36" as="geometry" />
        </mxCell>
        <mxCell id="-Cq0B-JXBsXN34kBOO9R-111" value="" style="edgeStyle=orthogonalEdgeStyle;rounded=0;orthogonalLoop=1;jettySize=auto;html=1;" edge="1" parent="1" source="-Cq0B-JXBsXN34kBOO9R-104" target="-Cq0B-JXBsXN34kBOO9R-106">
          <mxGeometry relative="1" as="geometry" />
        </mxCell>
        <mxCell id="-Cq0B-JXBsXN34kBOO9R-104" value="" style="rounded=1;whiteSpace=wrap;html=1;absoluteArcSize=1;arcSize=14;strokeWidth=2;fillColor=#f8cecc;strokeColor=#b85450;" vertex="1" parent="1">
          <mxGeometry x="1245" y="159" width="150" height="191" as="geometry" />
        </mxCell>
        <mxCell id="-Cq0B-JXBsXN34kBOO9R-105" value="Monitor &amp;amp; Controls Process" style="text;strokeColor=none;align=center;fillColor=none;html=1;verticalAlign=middle;whiteSpace=wrap;rounded=0;fontStyle=1;fontSize=20;" vertex="1" parent="1">
          <mxGeometry x="880" y="74" width="270" height="30" as="geometry" />
        </mxCell>
        <mxCell id="-Cq0B-JXBsXN34kBOO9R-106" value="" style="points=[[0.35,0,0],[0.98,0.51,0],[1,0.71,0],[0.67,1,0],[0,0.795,0],[0,0.65,0]];verticalLabelPosition=bottom;sketch=0;html=1;verticalAlign=top;aspect=fixed;align=center;pointerEvents=1;shape=mxgraph.cisco19.user;fillColor=#005073;strokeColor=none;" vertex="1" parent="1">
          <mxGeometry x="1440" y="230" width="50" height="50" as="geometry" />
        </mxCell>
        <mxCell id="-Cq0B-JXBsXN34kBOO9R-108" value="" style="shape=image;imageAspect=0;aspect=fixed;verticalLabelPosition=bottom;verticalAlign=top;image=data:image/png,iVBORw0KGgoAAAANSUhEUgAAASwAAACoCAMAAABt9SM9AAAA/1BMVEX///8AQoEAKnYAKHUAN3wALXf3+PoAOHwAL3gAPn8AQIAAMnoANXu+xtUAOn0wh5qYpr7a3+f/cxFKW47/iQCKmrb/kBBwhKj/onb/dh3/cQXpGzL/j1T/okz/jgD+t5x6ja7nAA3oABeirsT0oKPoACP/plb/qmH63N1Bh50ofpa0vc9CVIpFZJRWZZQAJHTO3uOwy9Jil6rM0t5WmKfh6+5heaEuVYuvucx1qLX/gQDL3OHp7/IAHHGIkbBKaJYeTIb+4tT/nD0AdI7/tnr/lSX/1ML/2swxSYQAFW//kFj/pXukxMyCrrr/tpb+18r/gTr1q67rQlAAAGvvd38wcZh5AAAHHElEQVR4nO2ai1rbNgBG41t8jZOQhgzo1oDHNghJ2hmcdJjFXbcOtrZb177/s0yKr5HkYA+WQPuf7wPLtizJx5IsyWk0AAAAAAAAAAAAAAAAAAAAAAAAAAAAAAAAAAAAAAAAAAAAAAAAAOBz4uJi2yV4RJyebrsEj4h2e9sleERAVg0gqwaQVc6rV6/SYPiC0m4vN2F69AKvx4yfnvySBi9O24Tzc/r/9Hl69PXp6+2U7AHyZPfrNNi8fE5ot+n/y2Z69PQEY4mUgqwYts+CrBzIqgFk1QCyasDLYtw8MFnNRRAE28qckxWGq/sPTdbUdKebzvS7hN3d35LQr6sRfkw4OTlJg5suo4imLEnapjN98k3M7u5uEmJq2AnPpssoYiuyvk8gNSsJMTXrfCuyBqbkjNZF2IqsFK7PYqnRZwWDwV373oFu2V+GrCvXvbpjcQbuY6pZb968+X3lQA1ZiiQpdyzO45L1dH//q5UDkJXDydrZgawyIKsG1WV1u91b0vpcZZ23k9W9wkrpEk5WtlJ6ffbzLYl+9rIKa/BLOFmXl34cOJvcg6zWcBHNgk44upGvhoLzRJbq+f1gHC2GviiBNbL8/mI8Hnih+CxlPljMZoHXGF7JNy32nOd1sqbTITv5qUwWCycr4x5k+ZKhm5ZpqlpkSXpfEIPIklRbN0ksXYsEukpl+ZHmmqbpOtNhSe6eYbs0YceOJMlmZc1sdZoea96o6k1+aiuyvKklEaz4r1RWGkcypx4XoUxWZ2rSy+h1aiS8t0Cz0hiSQNbYzI/RTAp3Uirrj52dP8Vnziaiu6P9foohSUZhl43ZmpJCupoWaZourZFlObIbaQa9+SlXt0pkeQpNUbNVWSV5zAQpD20aQ9Yj2XCry7oghOft58ttGvX9/k7MHiEJ7j9LToYtn9CbDOiGzeRGM1LoE8t2NK6S0fNGQB2GfbtcljWe0wfZDUgcS60mK6TPQRmS22l2NJLLnIvhU5tyn96wH6hVZTWLXwffplGf7e9xZLL8sx5hMpnQzTWTiSaV4DIROw4pYipo5JTKUtO216cXsA1RLGtIqqqS3KrnkLbGxViQiqqk9TQwq8p6STlvv3z37t3b7FPq+/2EpaWETNb1GYHIohtW1lTNoIryPYOJSPp0c5zuVJHViMzCFYX74GVpxfcFqcEa2wc0lWJVriwr5pz5LPHXs4S/9/aepuHVGXVJn9XJIbZUL9/li5uXsJKsucO/MYSyfOJHnfutJf7Mkhy2HbZIm5azTqe2rP/Qwd/pbdgl7VXLiutVkbW8hKkjQlkkNTriSBC9aWnblLK9+5L1vw0d6LsyP+upYlnDoixaZqOKLFqnLbeAPWBiEFnmItsTyVo8Pll9nZFVqWYRWdZsWITpA5ay8u5PJKt4LNTEsg4PDleu4WRNzeTL01nvPpthmayVZmgUO5oYcTNUJVM0tsqh3Z+Z7Y3rybp8kck6WrmGl5Ve1hN38AXWj+DJ2bzf7VSRRRxU7+BZq3yM/FFVkcW+zCm3ylKqrySsl0VKaEXpDmlut8syyWCD/QIiHjrIluQO15aNDC7cLC0qi50bBIWcSZW2bEEim5PVIo/LTTvZKrLGZFois/dUPiiVC0s7/MobjWGkOZLBhcEmTEqU9WokbIma9eZkNWZkEO1K824Ydn3ybPMaVCyyS95aJErX90y3IDdDLKtpkPGCFvikb2letIYG+zIkh+lMw5ktc29ZAlndaTbB8DXB1IHCyWI/WNyfrFA16SzZ0DTNNqVSWZJJoxiqRdVy7+ySiXSXLmiYtqwosmbrOi+r4dMYlqPR3EmIk9UYkHGrE/XnnTFxZUaiO2BlcdyfrEY4M6x87mgIZdl5DEsb8+ObsiWarqrnSasCWQ0/no8laU/5lhqQns/UHfJILVu8ynOfsqamecsPXEYzxVZVXVdtTVmIlvS7gaY5y6mlrcxE68uli3/NIUmaLv/pjhKxr7qYvk7S1pe5O4HARouUznEcWzOZYdq3CccHxx/i0IfVCMkkj7y+s/mesAQFovE4ui3OxajT6fc7o/KPH91Rx/O8zkj8i/J1a/CtTjAeL4bz8t+idz2Sed9rlQ0zwtbcm/NlOzqOOTg4iANH/6xGkJxsKSEOOCabxjbYyqeww6MYIisOHDKyXEVeQtfMliiikcfG2YqsHxKODo7TIFOqmIYsyVn4AdD8KMsft5U528H719erL9UaHfxG2OZT42T1eg9b1jaBrBpAVg0gqwZFWbTrJLJaK50oZOUcHmcrpX36pas3mfToNlsVvdLv+jvRz4dPnz6lwX7yLZX+z2UNhqJZ6RdPSH+gMOr15nS7dpEWxHAdPCgHsmoAWTWArBpwE2lQTjMMH8RSDAAAAAAAAAAAAAAAAAAAAAAAAAAAAAAAAAAAAAAAAAAAAAAAAACAevwLT1PTGoI/NFgAAAAASUVORK5CYII=;" vertex="1" parent="1">
          <mxGeometry x="1290" y="212" width="71.43" height="40" as="geometry" />
        </mxCell>
      </root>
    </mxGraphModel>
  </diagram>
</mxfile>
